<svg width="52" height="25" viewBox="0 0 52 25" fill="none" xmlns="http://www.w3.org/2000/svg">
<path fill-rule="evenodd" clip-rule="evenodd" d="M38.5449 0.13633C38.328 0.226334 38.131 0.358244 37.9651 0.524505C37.7989 0.690347 37.667 0.887359 37.5769 1.10426C37.4869 1.32116 37.4406 1.55368 37.4406 1.78852C37.4406 2.02335 37.4869 2.25587 37.5769 2.47277C37.667 2.68967 37.7989 2.88669 37.9651 3.05253L45.6306 10.7151H1.78569C1.31219 10.7151 0.85809 10.9032 0.523276 11.238C0.188463 11.5728 0.000366211 12.0269 0.000366211 12.5004C0.000366211 12.9739 0.188463 13.4281 0.523276 13.7629C0.85809 14.0977 1.31219 14.2858 1.78569 14.2858H45.6307L37.9651 21.9484C37.6299 22.2836 37.4415 22.7383 37.4415 23.2124C37.4415 23.6865 37.6299 24.1412 37.9651 24.4764C38.3004 24.8117 38.755 25 39.2291 25C39.7032 25 40.1579 24.8117 40.4931 24.4764L51.2051 13.7645C51.3714 13.5986 51.5033 13.4016 51.5933 13.1847C51.6833 12.9678 51.7296 12.7353 51.7296 12.5005C51.7296 12.2656 51.6833 12.0331 51.5933 11.8162C51.5033 11.5993 51.3714 11.4023 51.2051 11.2365L40.4931 0.524505C40.3273 0.358244 40.1303 0.226334 39.9134 0.13633C39.6965 0.046327 39.464 0 39.2291 0C38.9943 0 38.7618 0.046327 38.5449 0.13633Z" fill="#4EBC84"/>
</svg>
