<svg width="242" height="58" viewBox="0 0 242 58" fill="none" xmlns="http://www.w3.org/2000/svg">
<g clip-path="url(#clip0_1297_9594)">
<path d="M38.8589 0C42.4614 0 45.3819 5.48024 45.3819 10.1235C45.3819 14.7667 42.4614 18.5309 38.8589 18.5309C35.2564 18.5309 32.3359 14.7667 32.3359 10.1235C32.3359 5.48016 35.2564 0 38.8589 0Z" fill="#43BE8D"/>
<path d="M20.3238 0C23.9262 0 26.8467 5.48024 26.8467 10.1235C26.8467 14.7667 23.9262 18.5309 20.3238 18.5309C16.7213 18.5309 13.8008 14.7667 13.8008 10.1235C13.8008 5.48016 16.7212 0 20.3238 0Z" fill="#43BE8D"/>
<path d="M0.790425 24.4878C-0.739541 20.6575 -0.069486 15.1481 2.98445 13.9281C6.03846 12.7083 10.3199 16.24 11.8498 20.0702C13.3798 23.9005 12.1443 27.9944 9.09027 29.2142C6.03634 30.4341 2.32032 28.318 0.790425 24.4878Z" fill="#43BE8D"/>
<path d="M58.3936 24.4878C56.8636 28.318 53.1476 30.4341 50.0937 29.2142C47.0397 27.9944 45.8042 23.9005 47.3342 20.0702C48.8641 16.24 53.1455 12.7083 56.1995 13.9281C59.2535 15.1481 59.9235 20.6575 58.3936 24.4878Z" fill="#43BE8D"/>
<path d="M52.9272 45.6452C52.2278 42.5081 50.5601 39.6792 48.7152 37.0573C44.3933 30.915 37.471 24.7125 29.5908 24.7124C21.7428 24.7124 14.7892 30.9136 10.4663 37.0572C8.62144 39.6792 6.95369 42.5081 6.25424 45.6452C5.55464 48.7822 5.93727 52.2902 7.8806 54.8386C9.82399 57.3871 13.5051 58.6592 16.3838 57.28C18.0954 56.4599 19.4805 54.8058 21.3686 54.6469C23.1019 54.501 24.6337 55.6683 26.0794 56.6442C27.1243 57.3497 28.3838 57.9915 29.5907 57.9997C30.7976 57.9915 32.0571 57.3497 33.1021 56.6442C34.5477 55.6683 36.0795 54.501 37.8129 54.6469C39.701 54.8058 41.0861 56.4599 42.7976 57.28C45.6763 58.6592 49.3575 57.3871 51.3009 54.8386C53.2443 52.2902 53.6268 48.7822 52.9272 45.6452ZM36.4554 41.8665C35.5663 43.4912 34.1629 44.9224 32.9781 46.0358C32.3411 46.6344 31.6721 47.1946 30.975 47.7123L30.9708 47.7153C30.1517 48.3181 29.0298 48.3181 28.2106 47.7153L28.2066 47.7123C27.5094 47.1946 26.8403 46.6344 26.2033 46.0358C25.0186 44.9224 23.6151 43.4912 22.7261 41.8665C21.9916 40.5246 21.6081 39.0506 21.9882 37.5148C22.3525 36.0429 23.5145 34.7497 24.9391 34.5691C26.5864 34.3604 28.5044 35.5195 29.5907 36.8511C30.6771 35.5195 32.595 34.3604 34.2423 34.5691C35.667 34.7497 36.8289 36.0429 37.1933 37.5148C37.5734 39.0506 37.1898 40.5246 36.4554 41.8665Z" fill="#43BE8D"/>
</g>
<path d="M78.1836 29.8901L83.8294 27.0149V10.3389H90.4162V23.6693L96.6893 20.4804L98.7804 24.8193L90.4162 29.106V40.8681H106.726V46.5662H83.8294V32.4517L80.3269 34.229L78.1836 29.8901Z" fill="#1E2022"/>
<path d="M120.955 42.1227C122.907 42.1227 124.388 42.0182 125.398 41.8091V34.8041C125.05 34.6995 124.545 34.595 123.882 34.4904C123.22 34.3859 122.488 34.3336 121.687 34.3336C120.99 34.3336 120.275 34.3859 119.544 34.4904C118.847 34.595 118.202 34.7867 117.609 35.0655C117.052 35.3443 116.599 35.7451 116.25 36.2678C115.902 36.7557 115.727 37.3831 115.727 38.1498C115.727 39.6483 116.198 40.6939 117.139 41.2863C118.08 41.8439 119.352 42.1227 120.955 42.1227ZM120.432 18.5463C122.523 18.5463 124.283 18.8076 125.712 19.3304C127.141 19.8531 128.274 20.585 129.11 21.526C129.981 22.467 130.591 23.617 130.94 24.9762C131.323 26.3005 131.515 27.7643 131.515 29.3674V45.9389C130.539 46.148 129.058 46.392 127.071 46.6708C125.12 46.9844 122.907 47.1412 120.432 47.1412C118.794 47.1412 117.296 46.9844 115.936 46.6708C114.577 46.3571 113.41 45.8518 112.434 45.1548C111.493 44.4577 110.744 43.5516 110.186 42.4364C109.663 41.3212 109.402 39.9446 109.402 38.3066C109.402 36.7383 109.698 35.414 110.291 34.3336C110.918 33.2532 111.754 32.382 112.8 31.7198C113.845 31.0228 115.048 30.5349 116.407 30.2561C117.801 29.9424 119.247 29.7856 120.746 29.7856C121.443 29.7856 122.175 29.8379 122.941 29.9424C123.708 30.0121 124.527 30.1515 125.398 30.3606V29.3151C125.398 28.5833 125.311 27.8862 125.137 27.2241C124.963 26.5619 124.649 25.9869 124.196 25.499C123.778 24.9762 123.203 24.5754 122.471 24.2966C121.774 24.0178 120.885 23.8784 119.805 23.8784C118.341 23.8784 116.999 23.983 115.78 24.1921C114.56 24.4012 113.567 24.6451 112.8 24.9239L112.016 19.8009C112.817 19.5221 113.985 19.2433 115.518 18.9645C117.052 18.6857 118.69 18.5463 120.432 18.5463Z" fill="#1E2022"/>
<path d="M154.867 33.0267C154.867 30.2038 154.222 28.0082 152.933 26.4399C151.678 24.8717 149.639 24.0875 146.816 24.0875C146.224 24.0875 145.597 24.1224 144.934 24.1921C144.307 24.2269 143.68 24.3315 143.052 24.5057V40.1363C143.61 40.5196 144.342 40.8855 145.248 41.2341C146.189 41.5477 147.182 41.7045 148.228 41.7045C150.528 41.7045 152.201 40.9204 153.246 39.3521C154.327 37.7838 154.867 35.6754 154.867 33.0267ZM161.349 32.9222C161.349 35.0132 161.07 36.93 160.513 38.6725C159.99 40.4151 159.223 41.9136 158.213 43.1683C157.202 44.4229 155.93 45.3987 154.396 46.0957C152.898 46.7927 151.19 47.1412 149.273 47.1412C147.984 47.1412 146.799 46.9844 145.719 46.6708C144.638 46.3571 143.749 46.0086 143.052 45.6252V56.2373H136.727V20.1145C138.017 19.766 139.602 19.4349 141.484 19.1213C143.366 18.8076 145.353 18.6508 147.444 18.6508C149.604 18.6508 151.539 18.9819 153.246 19.644C154.954 20.3062 156.4 21.2646 157.585 22.5192C158.805 23.739 159.729 25.2376 160.356 27.015C161.018 28.7575 161.349 30.7266 161.349 32.9222Z" fill="#1E2022"/>
<path d="M183.141 33.0267C183.141 30.2038 182.497 28.0082 181.207 26.4399C179.953 24.8717 177.914 24.0875 175.091 24.0875C174.498 24.0875 173.871 24.1224 173.209 24.1921C172.582 24.2269 171.954 24.3315 171.327 24.5057V40.1363C171.885 40.5196 172.616 40.8855 173.523 41.2341C174.464 41.5477 175.457 41.7045 176.502 41.7045C178.802 41.7045 180.475 40.9204 181.521 39.3521C182.601 37.7838 183.141 35.6754 183.141 33.0267ZM189.624 32.9222C189.624 35.0132 189.345 36.93 188.787 38.6725C188.264 40.4151 187.498 41.9136 186.487 43.1683C185.476 44.4229 184.204 45.3987 182.671 46.0957C181.172 46.7927 179.465 47.1412 177.548 47.1412C176.258 47.1412 175.073 46.9844 173.993 46.6708C172.913 46.3571 172.024 46.0086 171.327 45.6252V56.2373H165.002V20.1145C166.291 19.766 167.877 19.4349 169.759 19.1213C171.641 18.8076 173.627 18.6508 175.718 18.6508C177.879 18.6508 179.813 18.9819 181.521 19.644C183.229 20.3062 184.675 21.2646 185.86 22.5192C187.079 23.739 188.003 25.2376 188.63 27.015C189.293 28.7575 189.624 30.7266 189.624 32.9222Z" fill="#1E2022"/>
<path d="M200.161 29.8902C200.963 29.0537 201.816 28.165 202.723 27.2241C203.629 26.2483 204.517 25.2899 205.389 24.3489C206.26 23.3731 207.079 22.4495 207.846 21.5783C208.647 20.6721 209.327 19.888 209.884 19.2258H217.36C215.617 21.1775 213.77 23.1988 211.819 25.2899C209.902 27.3809 207.968 29.4197 206.016 31.4062C207.062 32.2774 208.159 33.3404 209.309 34.595C210.459 35.8148 211.575 37.1217 212.655 38.5157C213.735 39.9097 214.746 41.3038 215.687 42.6978C216.628 44.0918 217.412 45.3813 218.039 46.5662H210.721C210.094 45.4858 209.362 44.3532 208.525 43.1683C207.724 41.9833 206.852 40.8333 205.911 39.718C204.97 38.6028 204.012 37.5573 203.036 36.5815C202.06 35.5708 201.102 34.717 200.161 34.02V46.5662H193.836V7.04552L200.161 6V29.8902Z" fill="#1E2022"/>
<path d="M230.94 42.1227C232.892 42.1227 234.373 42.0182 235.384 41.8091V34.8041C235.035 34.6995 234.53 34.595 233.868 34.4904C233.206 34.3859 232.474 34.3336 231.672 34.3336C230.975 34.3336 230.261 34.3859 229.529 34.4904C228.832 34.595 228.187 34.7867 227.595 35.0655C227.037 35.3443 226.584 35.7451 226.235 36.2678C225.887 36.7557 225.713 37.3831 225.713 38.1498C225.713 39.6483 226.183 40.6939 227.124 41.2863C228.065 41.8439 229.337 42.1227 230.94 42.1227ZM230.417 18.5463C232.509 18.5463 234.268 18.8076 235.697 19.3304C237.126 19.8531 238.259 20.585 239.095 21.526C239.967 22.467 240.576 23.617 240.925 24.9762C241.308 26.3005 241.5 27.7643 241.5 29.3674V45.9389C240.524 46.148 239.043 46.392 237.057 46.6708C235.105 46.9844 232.892 47.1412 230.417 47.1412C228.779 47.1412 227.281 46.9844 225.922 46.6708C224.563 46.3571 223.395 45.8518 222.419 45.1548C221.478 44.4577 220.729 43.5516 220.171 42.4364C219.649 41.3212 219.387 39.9446 219.387 38.3066C219.387 36.7383 219.683 35.414 220.276 34.3336C220.903 33.2532 221.74 32.382 222.785 31.7198C223.831 31.0228 225.033 30.5349 226.392 30.2561C227.786 29.9424 229.233 29.7856 230.731 29.7856C231.428 29.7856 232.16 29.8379 232.927 29.9424C233.693 30.0121 234.512 30.1515 235.384 30.3606V29.3151C235.384 28.5833 235.297 27.8862 235.122 27.2241C234.948 26.5619 234.634 25.9869 234.181 25.499C233.763 24.9762 233.188 24.5754 232.456 24.2966C231.759 24.0178 230.871 23.8784 229.79 23.8784C228.326 23.8784 226.985 23.983 225.765 24.1921C224.545 24.4012 223.552 24.6451 222.785 24.9239L222.001 19.8009C222.803 19.5221 223.97 19.2433 225.504 18.9645C227.037 18.6857 228.675 18.5463 230.417 18.5463Z" fill="#1E2022"/>
<defs>
<clipPath id="clip0_1297_9594">
<rect width="59.1841" height="58" fill="white"/>
</clipPath>
</defs>
</svg>
